<svg width="270" height="100" viewBox="0 0 270 100" fill="none" xmlns="http://www.w3.org/2000/svg">
<path d="M15.2126 30H23.3414L38.4959 71H30.251L26.4188 60.7789H12.0191L8.24498 71H0L15.2126 30ZM24.9672 55.1775L19.277 38.2577L13.3546 55.1775H24.9672Z" fill="white"/>
<path d="M47.3143 30L57.5334 45.1296L67.6945 30H76.404L62.1204 50.7887L75.9395 71H67.23L57.5334 56.4479L47.7788 71H39.0112L52.8303 50.7887L38.5467 30H47.3143Z" fill="white"/>
<path d="M80.5546 71V30H88.5673V71H80.5546Z" fill="#EC7979"/>
<path d="M128 36.9873H114.82V71H106.865V36.9873H93.6846V30H128V36.9873Z" fill="#EC7979"/>
</svg>
