<svg width="44" height="37" viewBox="0 0 44 37" fill="none" xmlns="http://www.w3.org/2000/svg">
<path d="M39.5198 9.72684C39.5486 10.1148 39.5486 10.5005 39.5486 10.8862C39.5486 22.6899 30.5645 36.2914 14.1456 36.2914C9.08722 36.2914 4.38788 34.8262 0.43335 32.2814C1.15155 32.3634 1.84315 32.3923 2.59017 32.3923C6.60897 32.402 10.514 31.0581 13.6757 28.5774C11.8124 28.5436 10.0062 27.9289 8.50919 26.819C7.01219 25.709 5.89917 24.1593 5.32553 22.3862C5.87748 22.4682 6.43165 22.5237 7.01242 22.5237C7.81263 22.5237 8.61728 22.4128 9.3643 22.22C7.34217 21.8117 5.52387 20.7156 4.21857 19.1182C2.91328 17.5207 2.20157 15.5204 2.20447 13.4575V13.3467C3.39482 14.0094 4.7758 14.424 6.2388 14.4794C5.01318 13.6649 4.00821 12.5598 3.31355 11.2625C2.61889 9.96526 2.25614 8.51622 2.25767 7.04467C2.25767 5.3866 2.69878 3.86597 3.4724 2.5404C5.71597 5.3002 8.51421 7.55796 11.6859 9.16748C14.8576 10.777 18.332 11.7024 21.884 11.8837C21.7466 11.2187 21.6624 10.5293 21.6624 9.83767C21.6618 8.66497 21.8923 7.50365 22.3408 6.4201C22.7893 5.33656 23.447 4.35203 24.2762 3.5228C25.1055 2.69358 26.09 2.03591 27.1735 1.58741C28.2571 1.13891 29.4184 0.908354 30.5911 0.908937C33.1624 0.908937 35.4833 1.98624 37.1147 3.72854C39.1137 3.34199 41.0306 2.61227 42.7805 1.57172C42.1142 3.63503 40.7185 5.38462 38.8548 6.49272C40.6277 6.29051 42.3603 5.82429 43.9953 5.10952C42.7742 6.88972 41.2611 8.4508 39.5198 9.72684Z" fill="#CCCCCC"/>
</svg>
